<?xml version="1.0" encoding="UTF-8" standalone="no"?>
<!-- Created with Inkscape (http://www.inkscape.org/) -->

<svg
   version="1.1"
   id="svg1"
   width="1072"
   height="1072"
   viewBox="0 0 1072 1072"
   xmlns="http://www.w3.org/2000/svg"
   xmlns:svg="http://www.w3.org/2000/svg">
  <defs
     id="defs1" />
  <g
     id="g1">
    <path
       style="fill:#000000"
       d="m 484.57783,922.93786 c -2.4,-0.16388 -9.76363,-0.92919 -16.36363,-1.7007 -6.6,-0.7715 -16.58182,-2.24301 -22.18182,-3.27002 -5.6,-1.027 -15.44982,-3.16151 -21.88848,-4.74334 -6.43866,-1.58183 -17.89321,-4.98491 -25.45455,-7.56241 -7.56133,-2.5775 -18.49334,-6.70329 -24.29334,-9.16843 -5.8,-2.46514 -14.84685,-6.59493 -20.10412,-9.17732 -5.25727,-2.58238 -14.92598,-7.90438 -21.48602,-11.82667 -6.56004,-3.92229 -13.9777,-8.57029 -16.4837,-10.32889 -2.50599,-1.75859 -9.03728,-6.49232 -14.51398,-10.51939 -5.4767,-4.02707 -13.39399,-10.27464 -17.59399,-13.8835 -4.2,-3.60886 -13.04954,-11.96292 -19.66565,-18.56459 -6.6161,-6.60166 -15.97535,-16.88136 -20.79832,-22.84377 -4.82297,-5.9624 -12.05048,-15.42255 -16.06113,-21.02255 -4.01064,-5.6 -10.23747,-15.09091 -13.8374,-21.09091 -3.59992,-6 -9.1633,-16.14546 -12.36307,-22.54546 -3.19976,-6.4 -7.31914,-15.08954 -9.15417,-19.3101 -1.83503,-4.22056 -5.01813,-12.23874 -7.07355,-17.81818 -2.05543,-5.57945 -5.14556,-15.05354 -6.86696,-21.05354 -1.7214,-6 -4.13966,-15.4909 -5.37391,-21.0909 -1.23426,-5.6 -2.74845,-13.12728 -3.36488,-16.72728 -0.61642,-3.6 -1.79736,-11.94545 -2.62431,-18.54545 l -1.50354,-12 -0.38215,-21.11689 -0.38215,-21.11689 0.85311,-11.24675 c 0.46921,-6.18571 1.66504,-16.94215 2.65739,-23.90321 0.99236,-6.96105 2.77819,-17.27014 3.96852,-22.90909 1.19033,-5.63894 3.33106,-14.46616 4.75717,-19.61604 1.42611,-5.14987 4.24448,-14.14987 6.26304,-20 2.01856,-5.85012 5.59244,-15.13532 7.94195,-20.63378 2.34951,-5.49846 7.03506,-15.51642 10.41234,-22.26215 3.37727,-6.74572 7.85576,-15.17426 9.9522,-18.73008 2.09644,-3.55581 5.94504,-9.73785 8.55245,-13.73785 2.6074,-4 8.40327,-12.18182 12.87969,-18.18182 4.47643,-6 11.4528,-14.74467 15.50306,-19.43261 4.05025,-4.68794 10.55107,-11.72918 14.44627,-15.64721 3.8952,-3.91802 10.68218,-10.4045 15.08218,-14.4144 4.4,-4.00989 11.10909,-9.75806 14.90909,-12.77369 3.8,-3.01564 9.97863,-7.6988 13.7303,-10.40702 3.75166,-2.70822 9.96985,-6.96064 13.81818,-9.44982 3.84834,-2.48919 11.01458,-6.90312 15.925,-9.80875 4.91041,-2.90562 14.89223,-8.16146 22.18181,-11.67962 7.28959,-3.51817 18.16289,-8.27907 24.16289,-10.57977 6,-2.30071 15.32727,-5.63974 20.72727,-7.42008 5.4,-1.78033 15.70909,-4.67039 22.90909,-6.42235 7.2,-1.75195 17.83637,-3.9926 23.63637,-4.97922 5.8,-0.98662 15.29091,-2.3633 21.09091,-3.05928 l 10.54545,-1.26542 23.63637,-0.0576 c 13,-0.0317 26.90909,0.18999 30.90909,0.49267 4,0.30268 9.89091,0.90676 13.09091,1.34242 3.2,0.43565 10.8909,1.61494 17.0909,2.62063 6.2,1.0057 17.49091,3.40706 25.09091,5.33635 7.6,1.9293 19.05455,5.28334 25.45455,7.45344 6.4,2.17009 15.89091,5.64236 21.09091,7.71616 5.2,2.07379 15.34545,6.68894 22.54545,10.25588 7.2,3.56694 16.69091,8.64377 21.09091,11.28185 4.4,2.63808 13.07931,8.202 19.28736,12.36428 6.20805,4.16227 15.09169,10.60772 19.74143,14.32322 4.64975,3.7155 11.18862,9.19746 14.53083,12.18214 3.34221,2.98467 9.79556,9.03922 14.34077,13.45454 4.54521,4.41532 12.34502,12.77331 17.33291,18.57331 4.98789,5.8 11.44928,13.65455 14.35863,17.45455 2.90936,3.8 8.233,11.32727 11.83032,16.72727 3.59732,5.4 9.00581,14.07273 12.01887,19.27273 3.01306,5.2 7.78931,14.07693 10.61389,19.72652 2.82457,5.64958 6.79446,14.2158 8.82197,19.03605 2.02751,4.82024 4.96614,12.47058 6.53029,17.00075 1.56414,4.53017 3.99845,12.00031 5.40956,16.60031 1.41111,4.6 3.70525,12.94546 5.09809,18.54546 1.39283,5.6 3.2012,13.67595 4.01859,17.94656 0.81739,4.2706 2.14012,12.77969 2.93941,18.90909 0.79928,6.12939 1.78762,15.72617 2.1963,21.32617 0.40867,5.6 0.74358,16.07272 0.74424,23.27272 6.6e-4,7.2 -0.32762,17.5091 -0.72951,22.9091 -0.40188,5.4 -1.22306,13.74545 -1.82485,18.54545 -0.60178,4.8 -1.94083,13.47273 -2.97567,19.27273 -1.03484,5.8 -3.28727,16.10909 -5.00539,22.90909 -1.71813,6.8 -4.67079,17.10909 -6.56146,22.90909 -1.89068,5.8 -4.98982,14.47273 -6.88697,19.27273 -1.89716,4.8 -5.31792,12.81818 -7.60168,17.81818 -2.28377,5 -5.64761,11.87273 -7.4752,15.27273 -1.82758,3.4 -5.9458,10.6 -9.15159,16 -3.20579,5.4 -7.80183,12.76363 -10.21344,16.36363 -2.4116,3.6 -6.56222,9.49773 -9.2236,13.10607 -2.66138,3.60834 -8.24613,10.63021 -12.41057,15.60416 -4.16444,4.97396 -11.47667,13.08807 -16.24941,18.03137 -4.77273,4.9433 -12.79091,12.66511 -17.81818,17.15958 -5.02726,4.49448 -11.59503,10.1364 -14.59503,12.53761 -3,2.40121 -8.23636,6.34633 -11.63636,8.76693 -3.4,2.4206 -8.94635,6.29476 -12.32522,8.60923 -3.37886,2.31448 -9.10464,6.00377 -12.72395,8.19842 -3.61931,2.19466 -11.00024,6.36954 -16.40206,9.27753 -5.40183,2.90799 -13.25786,6.83509 -17.45786,8.72689 -4.2,1.89181 -9.92728,4.39962 -12.72728,5.57293 -2.8,1.17331 -9.40939,3.74395 -14.68754,5.71253 -5.27814,1.96858 -14.60654,5.03024 -20.72976,6.80369 -6.12322,1.77344 -16.53201,4.37743 -23.13064,5.78662 -6.59863,1.4092 -16.41569,3.21511 -21.81569,4.01313 -5.4,0.79802 -12.10909,1.66425 -14.90909,1.92496 -2.8,0.2607 -5.90909,0.63659 -6.90909,0.8353 -1,0.19871 -12.29091,0.45732 -25.09091,0.57467 -12.8,0.11736 -25.23637,0.0793 -27.63637,-0.0846 z m 50.18182,-1.93927 c 0.8,-0.17099 4.07273,-0.54012 7.27273,-0.82031 3.2,-0.28018 10.23636,-1.14734 15.63636,-1.92703 5.4,-0.77968 13.90909,-2.25572 18.90909,-3.28008 5,-1.02437 13.34546,-2.95595 18.54546,-4.29241 5.2,-1.33645 14.14712,-3.94815 19.88248,-5.80376 5.73537,-1.85561 14.79238,-5.13737 20.12669,-7.29279 5.33431,-2.15543 16.02355,-7.02091 23.75388,-10.81218 7.73032,-3.79127 18.30967,-9.46759 23.50967,-12.61404 5.2,-3.14645 12.23637,-7.59048 15.63637,-9.87561 3.4,-2.28514 7,-4.72045 8,-5.41179 1,-0.69135 5.41818,-4.03897 9.81818,-7.43916 4.4,-3.40019 10.94545,-8.62458 14.54545,-11.60975 3.6,-2.98517 10.10587,-8.87876 14.45749,-13.09686 4.35162,-4.2181 12.3698,-12.59349 17.81818,-18.61198 5.44838,-6.01849 12.72647,-14.69122 16.17353,-19.27273 3.44705,-4.58151 8.7276,-11.93002 11.73454,-16.33002 3.00694,-4.4 8.37081,-12.74545 11.91971,-18.54545 3.5489,-5.8 8.62328,-15.12727 11.27639,-20.72727 2.6531,-5.6 6.53646,-14.27273 8.62967,-19.27273 2.09321,-5 5.53045,-13.83636 7.63832,-19.63636 2.10788,-5.8 4.99636,-14.30909 6.41886,-18.90909 1.4225,-4.6 3.55668,-12.61819 4.74262,-17.81819 1.18593,-5.2 2.83431,-13.54545 3.66306,-18.54545 0.82874,-5 2.00878,-13.23549 2.62229,-18.30108 0.61351,-5.06559 1.39874,-13.57468 1.74496,-18.90909 0.34621,-5.33441 0.52723,-17.38983 0.40227,-26.78983 -0.12497,-9.4 -0.40091,-18.56364 -0.61322,-20.36364 -0.2123,-1.8 -0.75442,-7.03636 -1.20472,-11.63636 -0.45029,-4.6 -1.77212,-13.97252 -2.93739,-20.82782 -1.16527,-6.8553 -3.28225,-17.32803 -4.70441,-23.27273 -1.42216,-5.9447 -4.51499,-16.58878 -6.87296,-23.65352 -2.35796,-7.06474 -5.9036,-16.88292 -7.87919,-21.81818 -1.97559,-4.93526 -5.78505,-13.71866 -8.46546,-19.51866 -2.68041,-5.8 -6.21073,-13 -7.84517,-16 -1.63443,-3 -5.82473,-10.06884 -9.31177,-15.70853 -3.48704,-5.6397 -8.22747,-13.00333 -10.53427,-16.36364 -2.30681,-3.36031 -7.44455,-10.36419 -11.41721,-15.56419 -3.97265,-5.2 -10.9228,-13.54546 -15.44477,-18.54546 -4.52197,-5 -12.10169,-12.87057 -16.84382,-17.49015 -4.74214,-4.61958 -12.38571,-11.51149 -16.98571,-15.31534 -4.6,-3.80385 -11.63636,-9.38389 -15.63636,-12.40009 -4,-3.01619 -11.30708,-8.17495 -16.23796,-11.46391 -4.93088,-3.28895 -10.65816,-6.99015 -12.72728,-8.22488 -2.06912,-1.23474 -7.36203,-4.17457 -11.76203,-6.53297 -4.4,-2.35839 -12.58182,-6.44309 -18.18182,-9.0771 -5.6,-2.63401 -15.25455,-6.82791 -21.45455,-9.31977 -6.2,-2.49187 -15.38329,-5.86695 -20.40732,-7.50018 -5.02402,-1.63323 -14.3513,-4.27495 -20.72727,-5.87049 -6.37597,-1.59553 -15.19268,-3.56887 -19.59268,-4.3852 -4.4,-0.81633 -13.13555,-2.14071 -19.41233,-2.94308 -6.27677,-0.80237 -15.11314,-1.70835 -19.63636,-2.0133 -4.52322,-0.30495 -16.89676,-0.5258 -27.49676,-0.49079 -10.6,0.035 -23.03637,0.45681 -27.63637,0.93732 -4.6,0.48051 -10,1.05432 -12,1.27512 -2,0.2208 -9.2,1.33869 -16,2.4842 -6.8,1.14551 -18.41818,3.60137 -25.81818,5.45748 -7.4,1.8561 -17.21818,4.62073 -21.81818,6.14363 -4.6,1.52289 -11.30909,3.91039 -14.90909,5.30555 -3.6,1.39515 -10.47273,4.25024 -15.27273,6.34464 -4.8,2.0944 -12.98182,5.93603 -18.18182,8.53695 -5.2,2.60093 -13.21818,6.88407 -17.81818,9.5181 -4.6,2.63403 -8.69091,5.04954 -9.09091,5.36779 -0.4,0.31825 -3.50909,2.43334 -6.90909,4.7002 -3.4,2.26686 -9.78182,6.74739 -14.18182,9.95673 -4.4,3.20935 -11.27273,8.50298 -15.27273,11.76363 -4,3.26066 -10.87272,9.27924 -15.27272,13.37464 -4.4,4.0954 -9.91322,9.4623 -12.2516,11.92645 -2.33839,2.46415 -7.43144,8.08028 -11.31791,12.48028 -3.88647,4.4 -9.67729,11.27272 -12.8685,15.27272 -3.19121,4 -7.4388,9.56364 -9.43909,12.36364 -2.00028,2.8 -5.79941,8.52727 -8.4425,12.72727 -2.64309,4.2 -6.57847,10.74546 -8.74527,14.54546 -2.16681,3.8 -5.61305,10.01818 -7.65831,13.81818 -2.04526,3.8 -5.57853,11.16364 -7.8517,16.36364 -2.27318,5.2 -5.26708,12.4 -6.65312,16 -1.38603,3.6 -3.95435,10.71968 -5.70737,15.82151 -1.75303,5.10183 -4.3321,13.44729 -5.73127,18.54545 -1.39918,5.09817 -3.23533,12.37849 -4.08033,16.17849 -0.84501,3.8 -2.17411,10.34545 -2.95357,14.54545 -0.77946,4.2 -2.04519,12.87273 -2.81274,19.27273 -0.76754,6.4 -1.61365,14.25455 -1.88023,17.45455 -0.26659,3.2 -0.48531,13.51247 -0.48605,22.9166 -7.4e-4,9.40414 0.20302,19.22232 0.45282,21.81819 0.24979,2.59586 0.62905,6.68339 0.84281,9.08339 0.21375,2.4 0.87358,8.12727 1.46628,12.72727 0.59271,4.6 1.90256,12.78182 2.91079,18.18182 1.00823,5.4 3.30868,15.63564 5.11212,22.74587 1.80343,7.11023 4.70392,17.25569 6.44552,22.54546 1.7416,5.28977 4.62724,13.3814 6.41252,17.9814 1.78529,4.6 4.76333,11.77349 6.61788,15.94109 1.85456,4.1676 6.03596,12.51305 9.29201,18.54545 3.25606,6.0324 7.88073,14.2056 10.27705,18.16267 2.39632,3.95707 6.82682,10.8298 9.84555,15.27273 3.01874,4.44293 8.67648,12.16897 12.57277,17.16897 3.89629,5 7.67775,9.75322 8.40325,10.56271 0.7255,0.80949 3.93728,4.40411 7.13728,7.98803 3.2,3.58393 8.92727,9.65784 12.72727,13.49757 3.8,3.83974 9.69091,9.41772 13.09091,12.39551 3.4,2.97779 7.98182,6.9033 10.18182,8.72334 2.2,1.82005 6.94545,5.58324 10.54545,8.36266 3.6,2.77942 8.83637,6.69471 11.63637,8.70064 2.8,2.00593 8.52727,5.80024 12.72727,8.4318 4.2,2.63156 10.58182,6.4206 14.18182,8.42008 3.6,1.99947 11.16001,5.94697 16.80002,8.7722 5.64001,2.82524 14.53252,6.9379 19.76115,9.13924 5.22862,2.20134 14.35952,5.68079 20.29089,7.7321 5.93136,2.05132 14.71157,4.83412 19.51157,6.18402 4.8,1.34989 12.32728,3.27865 16.72728,4.28613 4.4,1.00748 12.78097,2.64103 18.62439,3.6301 5.84341,0.98907 15.82523,2.31163 22.18182,2.93902 6.35658,0.62739 13.19379,1.26993 15.19379,1.42786 2,0.15793 12.96363,0.17533 24.36363,0.0387 11.4,-0.13667 21.38182,-0.38838 22.18182,-0.55936 z m -49.81818,-43.88185 c -1.4,-0.13721 -5.81818,-0.59864 -9.81818,-1.02539 -4,-0.42676 -11.933,-1.57265 -17.62888,-2.54644 -5.69589,-0.97379 -15.35043,-3.04868 -21.45455,-4.61086 -6.10411,-1.56219 -16.99087,-4.79626 -24.19279,-7.18682 -7.20191,-2.39057 -18.00191,-6.50929 -24,-9.15271 -5.99808,-2.64342 -15.01884,-7.04836 -20.04613,-9.78875 -5.0273,-2.74039 -13.2286,-7.59812 -18.22513,-10.79496 -4.99652,-3.19683 -13.64692,-9.15091 -19.2231,-13.23128 -5.57618,-4.08037 -11.44587,-8.53697 -13.04375,-9.90355 l -2.90523,-2.48469 0.72342,-0.69409 c 0.39787,-0.38175 25.75977,-9.69735 56.35977,-20.70134 30.6,-11.00399 80.34546,-28.89203 110.54546,-39.7512 30.2,-10.85917 76.34545,-27.45433 102.54545,-36.87815 26.2,-9.42381 64.76441,-23.30614 85.69868,-30.84961 l 38.06231,-13.7154 2.8615,0.64293 c 1.57382,0.35362 3.59123,1.13129 4.48314,1.72818 0.8919,0.59688 5.56472,4.63927 10.38404,8.98309 4.81931,4.34382 11.34016,10.18876 14.49078,12.98876 3.15062,2.8 10.98936,9.79975 17.41943,15.555 6.43007,5.75525 12.30758,11.04453 13.06115,11.75396 l 1.37012,1.28986 -3.70644,6.87542 c -2.03854,3.78147 -5.38858,9.61947 -7.44454,12.97331 -2.05596,3.35385 -5.88178,9.20699 -8.50181,13.00699 -2.62004,3.8 -8.55764,11.65455 -13.19467,17.45455 -4.63704,5.8 -13.50533,15.63743 -19.70733,21.86095 -6.202,6.22352 -12.74908,12.62396 -14.54908,14.22319 -1.8,1.59923 -6.7091,5.7025 -10.9091,9.11837 -4.2,3.41587 -12.21818,9.32514 -17.81818,13.1317 -5.6,3.80656 -13.45454,8.88642 -17.45454,11.28858 -4,2.40217 -11.5601,6.51571 -16.80021,9.14121 -5.24011,2.62551 -13.09466,6.30451 -17.45454,8.17557 -4.35989,1.87106 -14.14525,5.47394 -21.74525,8.00641 -7.6,2.53247 -16.92728,5.43539 -20.72728,6.45093 -3.8,1.01554 -10.18181,2.51862 -14.18181,3.34017 -4,0.82155 -10.31862,1.98544 -14.04137,2.58641 -3.72274,0.60098 -11.41365,1.56531 -17.0909,2.14296 l -10.32228,1.05026 -19.63636,-0.10202 c -10.8,-0.0561 -20.78182,-0.21428 -22.18182,-0.3515 z M 240.98068,711.85869 c -1.44253,-2.86449 -4.77021,-10.35385 -7.39483,-16.64302 -2.62463,-6.28917 -6.52751,-16.67961 -8.67307,-23.08989 -2.14556,-6.41027 -5.0543,-16.56434 -6.46386,-22.5646 -1.40956,-6.00026 -3.21591,-14.82822 -4.01411,-19.61769 -0.7982,-4.78947 -1.99074,-13.78085 -2.65009,-19.98085 l -1.19882,-11.27273 -0.0203,-17.81818 c -0.0112,-9.8 0.37184,-21.90909 0.85116,-26.90909 0.47931,-5 1.53576,-13.50909 2.34766,-18.90909 0.8119,-5.4 2.46505,-14.23636 3.67367,-19.63636 1.20862,-5.4 3.29327,-13.63341 4.63256,-18.29647 1.33928,-4.66306 4.2913,-13.49942 6.56002,-19.63637 2.26873,-6.13694 6.54171,-16.39444 9.49551,-22.79444 2.95379,-6.4 7.71869,-15.72727 10.58865,-20.72727 2.86996,-5 7.16013,-12.03636 9.53372,-15.63636 2.37359,-3.6 6.30552,-9.32728 8.73763,-12.72728 2.43211,-3.4 5.58519,-7.65132 7.00685,-9.44739 1.42166,-1.79607 4.9218,-6.05061 7.7781,-9.45455 2.8563,-3.40393 7.78674,-8.80715 10.95654,-12.00715 3.1698,-3.2 8.52374,-8.44286 11.89764,-11.65081 3.3739,-3.20794 8.09801,-7.56955 10.49801,-9.69246 2.4,-2.12291 7.47272,-6.23801 11.27272,-9.14466 3.8,-2.90666 9.52728,-7.07626 12.72728,-9.2658 3.2,-2.18953 10.03188,-6.51571 15.18195,-9.61374 5.15007,-3.09802 13.00462,-7.55181 17.45454,-9.89731 4.44993,-2.34551 12.83623,-6.2854 18.63623,-8.75532 5.8,-2.46993 15.82427,-6.2532 22.27615,-8.40727 6.45189,-2.15407 15.45189,-4.87303 20,-6.04213 4.54812,-1.1691 13.34204,-3.12363 19.54204,-4.34342 6.2,-1.21978 15.52727,-2.70313 20.72727,-3.29633 5.2,-0.59321 11.66364,-1.27041 14.36364,-1.50491 l 4.90909,-0.42635 v 0.87736 c 0,0.48254 -2.84011,5.80984 -6.31134,11.83843 -3.47124,6.0286 -8.16339,14.23381 -10.42699,18.23381 -2.26361,4 -10.60211,18.56364 -18.53,32.36364 -7.9279,13.8 -23.41358,40.8 -34.41263,60 -10.99905,19.2 -25.62396,44.72727 -32.49979,56.72727 -6.87583,12 -18.98154,33.10909 -26.90158,46.90909 -7.92004,13.8 -26.02398,45.38182 -40.23098,70.18182 -14.20699,24.8 -31.45684,54.90909 -38.33298,66.90909 -6.87614,12 -18.48258,32.29091 -25.79209,45.09091 -7.30951,12.8 -13.71354,23.72573 -14.23118,24.27939 l -0.94116,1.00666 z m 539.01725,-23.16878 c -1.37687,-2.3 -6.30353,-10.73757 -10.94814,-18.75015 -4.64461,-8.01258 -8.64359,-15.56257 -8.88663,-16.77774 l -0.44188,-2.20942 1.0948,-2.62023 c 0.60214,-1.44113 1.95005,-3.1806 2.99534,-3.86551 1.04529,-0.6849 9.4918,-3.98308 18.77002,-7.32929 9.27823,-3.34621 17.29292,-6.08402 17.81044,-6.08402 h 0.94094 l -0.36813,1.63636 c -0.20247,0.9 -1.38548,6.38182 -2.62892,12.18182 -1.24343,5.8 -3.68742,15.48257 -5.43108,21.51683 -1.74366,6.03425 -4.5184,14.46152 -6.16608,18.72727 -1.64768,4.26574 -3.27512,7.7559 -3.61653,7.7559 -0.34141,0 -1.74728,-1.88182 -3.12415,-4.18182 z m -389.93385,-7.55954 -1.98264,-1.55954 0.2815,-2.62228 0.28149,-2.62227 28.39887,-43.27273 c 15.61937,-23.8 39.76543,-60.61416 53.65791,-81.80924 13.89247,-21.19509 25.69031,-39.03145 26.21743,-39.63637 0.52711,-0.60491 2.22799,-2.45482 3.77973,-4.11089 l 2.82135,-3.01105 2.89269,-0.80308 c 1.59098,-0.44169 4.15766,-0.8049 5.70373,-0.80713 l 2.81103,-0.004 3.73442,3.56809 c 2.05393,1.96245 12.07988,11.17708 22.27988,20.47694 10.2,9.29986 20.52368,18.73968 22.94152,20.97736 2.41783,2.23769 17.84353,16.41706 34.27933,31.50973 l 29.88327,27.44121 1.17521,2.93714 c 0.64637,1.61543 1.17521,4.09223 1.17521,5.504 0,1.41177 -0.4574,3.45137 -1.01645,4.53245 -0.55905,1.08109 -1.65805,2.54624 -2.44222,3.25591 l -1.42577,1.29031 -19.19414,5.09729 c -10.55678,2.80351 -34.08505,9.04371 -52.28505,13.86713 -18.2,4.82341 -35.21818,9.36201 -37.81818,10.08579 -2.6,0.72377 -9.30909,2.51544 -14.90909,3.98149 -5.6,1.46604 -14.27273,3.76639 -19.27273,5.11189 -5,1.34551 -25.81792,6.88676 -46.26204,12.31391 l -37.17113,9.86754 h -3.27625 -3.27624 z m 346.48604,-71.34955 -3.24501,-1.63636 -12.63512,-21.81818 c -6.94932,-12 -19.25379,-33.27273 -27.34327,-47.27273 -8.08948,-14 -37.22438,-64.4 -64.74422,-112 -27.51984,-47.6 -57.03684,-98.63307 -65.59333,-113.40681 -8.55649,-14.77375 -15.46306,-27.24096 -15.34793,-27.70493 l 0.20932,-0.84357 10.90909,2.00208 c 6,1.10115 15.65455,3.15352 21.45455,4.56083 5.8,1.40731 14.47272,3.75347 19.27272,5.21369 4.8,1.46023 13.30909,4.4691 18.90909,6.68639 5.6,2.21729 14.76364,6.31897 20.36364,9.11484 5.6,2.79588 13.78182,7.23219 18.18182,9.85847 4.4,2.62628 12.09091,7.45771 17.09091,10.73651 5,3.2788 12.03636,8.25128 15.63636,11.04996 3.6,2.79868 9.98182,8.1125 14.18182,11.80849 4.2,3.69599 10.84789,9.87498 14.7731,13.7311 3.9252,3.85612 11.80953,12.57477 17.52073,19.37477 5.7112,6.8 12.31786,15.11243 14.68145,18.47206 2.3636,3.35963 6.1624,9.08691 8.44179,12.72727 2.27938,3.64037 6.98495,11.81066 10.45681,18.1562 3.47187,6.34555 8.04193,15.39042 10.1557,20.09971 2.11377,4.7093 5.18671,12.21343 6.82875,16.67586 1.64205,4.46242 3.94481,11.12665 5.11726,14.80938 1.17244,3.68273 3.26218,11.11406 4.64387,16.51406 1.38168,5.4 3.36752,14.76741 4.41297,20.81646 1.04546,6.04905 2.40576,15.53996 3.02289,21.09091 0.61713,5.55095 1.27328,17.78354 1.45811,27.18354 0.18483,9.4 0.0616,18.06678 -0.27384,19.2595 l -0.60989,2.16859 -2.13303,0.55976 c -1.17317,0.30787 -15.12649,3.50473 -31.00737,7.10414 -15.88089,3.59941 -29.47518,6.54438 -30.20954,6.54438 -0.73436,0 -2.79545,-0.73637 -4.5802,-1.63637 z"
       id="path1" />
    <path
       style="fill:#ffffff;fill-opacity:1;stroke-width:1.33499"
       d="M 481.26526,920.26251 C 441.8549,915.5082 424.17399,911.76605 397.4832,902.53008 325.79339,877.72283 267.03379,832.40311 224.29731,768.95641 185.74413,711.72025 165.2315,640.62129 167.29413,571.37733 c 0.84814,-28.47297 3.07875,-44.9532 9.75736,-72.08966 17.85874,-72.56352 58.44908,-136.97374 115.38479,-183.09676 49.58748,-40.1703 105.08155,-64.30073 170.39913,-74.09447 18.00319,-2.69941 67.4128,-3.06429 86.51453,-0.6389 81.2099,10.3114 159.3719,51.15064 212.14247,110.84333 46.04496,52.08486 73.12876,110.10932 84.4981,181.02914 2.94581,18.37539 3.29572,70.83874 0.60102,90.11208 -4.44458,31.78898 -13.98827,65.33231 -27.13628,95.37608 -26.39245,60.30795 -73.98301,115.02138 -130.73396,150.30097 -44.88913,27.9056 -90.81533,43.78059 -144.70314,50.01855 -15.3924,1.78179 -51.88482,2.43591 -62.75289,1.12482 z m 61.98895,-43.88175 c 22.50245,-2.78585 37.27751,-6.20983 60.39245,-13.99534 59.13708,-19.91842 107.01817,-55.00926 145.17415,-106.39451 8.91614,-12.00749 21.22079,-31.86297 23.45645,-37.85063 0.55626,-1.48978 -7.119,-9.1475 -26.76096,-26.69988 -28.56784,-25.5287 -31.52262,-27.82219 -35.94592,-27.90118 -1.45684,-0.026 -84.66033,29.45828 -184.89664,65.52066 -209.00118,75.19314 -210.9502,75.90735 -210.9502,77.30191 0,1.12059 18.31328,14.90226 31.37235,23.60926 36.43664,24.29376 85.09732,41.73776 130.82939,46.90007 17.27543,1.95006 49.5131,1.71528 67.32893,-0.49036 z M 262.87538,686.1868 c 55.15797,-95.78759 226.28755,-394.89688 228.06435,-398.62284 1.18332,-2.48147 1.84712,-4.81613 1.4751,-5.18815 -1.13195,-1.13195 -32.68663,3.1976 -49.10231,6.73723 -41.35758,8.91773 -81.73326,27.73246 -117.52081,54.76373 -13.60448,10.27582 -43.60999,40.07051 -53.66089,53.28388 -25.04499,32.92526 -45.46781,75.60162 -54.30335,113.47447 -12.3825,53.07659 -10.28141,109.65436 5.93498,159.81668 4.28398,13.25168 6.60204,19.12209 16.49271,41.76738 3.56854,8.1704 1.66069,10.36605 22.62022,-26.03238 z m 525.25146,-3.00374 c 6.02464,-17.04302 14.86485,-51.51556 13.54836,-52.83205 -1.25517,-1.25519 -37.25857,12.50651 -40.06699,15.31492 -1.09821,1.09822 -1.99675,3.59335 -1.99675,5.54475 0,4.23649 21.06263,41.65109 23.44757,41.65109 0.90553,0 3.18605,-4.35542 5.06781,-9.67871 z M 511.92746,653.3544 c 62.43441,-16.58931 114.5144,-31.05146 115.73329,-32.13809 1.21891,-1.08663 2.57033,-3.38677 3.00319,-5.11142 1.99028,-7.92989 -0.66286,-10.82513 -58.61911,-63.96805 -55.76815,-51.13656 -56.1012,-51.41336 -61.91957,-51.46363 -4.96203,-0.0429 -6.50274,0.64173 -10.15184,4.51089 -5.68777,6.03081 -111.24634,166.88373 -112.31783,171.15286 -0.98005,3.90483 2.32948,7.07129 7.45991,7.1374 1.81215,0.0233 54.37753,-13.53063 116.81196,-30.11996 z m 262.93308,-48.58529 c 16.09658,-3.63683 29.80541,-7.38125 30.46405,-8.32091 1.71375,-2.44495 0.0309,-43.94911 -2.46816,-60.87345 -4.46115,-30.21183 -13.58615,-59.19767 -27.39271,-87.01383 -15.89732,-32.0284 -33.14278,-55.98495 -58.26305,-80.93614 -26.0172,-25.84209 -60.73323,-48.89793 -95.91239,-63.69798 -17.95661,-7.55444 -71.44209,-21.18815 -73.80699,-18.81376 -1.17235,1.17706 1.59054,6.05655 96.32641,170.11984 47.6977,82.60274 88.19339,151.53848 89.99042,153.19053 1.98363,1.8236 4.94273,2.99478 7.53161,2.98094 2.34536,-0.0125 17.43423,-2.9984 33.53081,-6.63524 z"
       id="path2" />
  </g>
</svg>
